# xmcd
#
# Track frame offsets:
#	150
#	22152
#	39235
#	53152
#	70450
#	85292
#	97397
#	108235
#	123762
#	141802
#	159920
#	174812
#	189565
#	204330
#	217695
#	230522
#	249190
#	266562
#
# Disc length: 3773
#
# Revision: 3
# Processed by: cddbd v1.5.1PL0 Copyright (c) Steve Scherf et al.
# Submitted via: CDex 1.50beta9
# Normalized: r2:TDELIM( - )
#
DISCID=ee0ebb12
DTITLE=Various Artist - CDX Volume 168A
DYEAR=1997
DGENRE=Country
TTITLE0=Tim McGraw - Everywhere
TTITLE1=Mark Collie, Jeff Wood and Aaron Tippin - Fire Down Below
TTITLE2=James T Horn - Geronimo
TTITLE3=Sons of the Desert - Hand of Fate
TTITLE4=Brooks and Dunn - Honky Tonk Truth
TTITLE5=Smokin' Armadillos - I Don' Want No Part Of It
TTITLE6=Gary Allan - Living In A House Full of Love
TTITLE7=John McEuen - Return To Dismal Swamp
TTITLE8=Clint Black - Something That We Do
TTITLE9=Little Texas - The Call
TTITLE10=Great Plains - There's More Where That Came From
TTITLE11=Trace Adkins - The Rest of Mine
TTITLE12=George Strait - Today My World Slipped Away
TTITLE13=The Ranch - Walkin' The Country
TTITLE14=Bill Engvall and John Michael Montgomery - Warning Signs
TTITLE15=Reba McEntire - What If It's You
TTITLE16=Keith Perry - When I Could Fly
TTITLE17=Ed Peterson - DWIOU
EXTD=YEAR: 1997
EXTT0=
EXTT1=
EXTT2=
EXTT3=
EXTT4=
EXTT5=
EXTT6=
EXTT7=
EXTT8=
EXTT9=
EXTT10=
EXTT11=
EXTT12=
EXTT13=
EXTT14=
EXTT15=
EXTT16=
EXTT17=
PLAYORDER=
